<svg xmlns="http://www.w3.org/2000/svg" width="23" height="27" viewBox="0 0 31 34"><path d="M28.6 4.1c1-0.5 1-0.5-0.5-2 -1-1.5-1-1.5-1.5-0.5 -0.5 0.5-1 1.5-1.5 1.5 -0.5 0.5-0.5 1-0.5 1.5 0 0-1.5 1.5-3.1 3 -1.5 1.5-3.6 3-4.6 4 -1 1-2.1 2-2.1 2 -0.5 0-2.6-2.5-4.6-4.9C8.1 6.1 5.5 3.6 5 3.6 4 2.6 3 3.1 3.5 4.1c0.5 0.5 0 1 0 0.5 -0.5 0-1 0-1.5 0.5 -1 1-1 1 0 1.5 1.5 1 6.7 5.4 8.7 7.9l1.5 1.5 -2.1 2.5c-1 1-2.6 3-3.6 4.4 -2.6 2.5-6.7 8.4-6.2 8.9 0 0 0.5 0.5 1.5 0.5 1.5 1 1.5 1 2.1-0.5 0.5-1 3.1-4 5.6-6.4l5.1-4.9 2.6 2.5c1.5 1.5 3.6 4 5.1 5.4l3.1 2.5 0.5-1c1-1.5 1-2 0-3 -0.5-0.5-1.5-2-2.6-3 -2.1-3-5.1-6.9-5.6-6.9 0-0.5 1.5-3 5.6-7.9C24.5 7.6 27.1 5.1 28.6 4.1zM19.9 20.9c1 1.5 2.1 3 2.6 3.5 0.5 0.5 0.5 1.5 0.5 2v0.5c0-0.5-1.5-2-3.1-3.5 -3.6-3.5-3.6-3.5-3.1-4.4C17.4 18.4 17.9 18.9 19.9 20.9zM17.9 14.5c-1 1-1.5 2-1.5 2.5s-3.1 3.5-6.7 6.9c-3.6 3.5-6.2 6.4-6.2 6.9 0 0-0.5 0.5-1 0.5 -1 0-1-0.5 1.5-3.5 2.1-3.5 6.2-8.4 8.2-9.9l2.1-1.5 -1.5-2L7.1 9C5 7.1 4 5.1 4 5.1c0.5 0 2.1 1 3.6 3 1.5 2 4.1 4.4 5.1 5.4l2.1 2.5 3.6-4.4c2.1-2 4.1-3.5 4.1-3.5C23 8.1 19.9 12 17.9 14.5z"/></svg>