<svg xmlns="http://www.w3.org/2000/svg" viewBox="0 0 32 31" class="mkdf-dropdown-cart"><path d="M15.7 30.2c-3.5 0-7-0.3-7.9-0.9 -1.8-1.2-7-12.9-7-14.5 0-0.7 1.5-1.9 4.3-4 1.9-3 4.9-6.8 6.4-7.1 0.5-0.1 0.7 0.1 0.9 0.2 0.2 0.2 0.2 0.4 0.2 0.6 -0.1 1.4-3.4 3.8-6.6 6.2 -0.2 0.1-0.3 0.3-0.5 0.4 -1 1.6-1.7 3-1.6 3.3 0.8 0.4 13.2 0.2 20.9-0.1 0.1 0 0.2 0.1 0.3 0.2 0 0.1-0.1 0.2-0.2 0.2 -3.4 0.1-20.4 0.7-21.3-0.1 -0.2-0.2-0.2-0.5-0.1-0.7 0.1-0.5 0.5-1.2 1-2.2 -1.6 1.2-3.1 2.4-3.1 2.9 0 1.4 5.1 13.1 6.8 14.1 1.6 1 13.4 1.2 15.4 0 2-1.2 6.8-12.5 6.8-14.1 0-0.4-1.6-1.8-3.4-3.3 1.2 1.6 2 2.8 2.2 2.9 0.1 0.1 0 0.3-0.1 0.3 -0.1 0.1-0.3 0-0.3-0.1 -0.8-1.1-2-2.7-3.3-4.5 -0.4-0.3-0.8-0.6-1.1-0.9 -4.8-3.8-7.9-6.3-7.9-7.5 0-0.2 0.1-0.4 0.3-0.5 0.2-0.1 0.4-0.2 0.6-0.1 1.7 0.3 5.6 5 8.5 8.7 3.3 2.6 5.1 4.1 5.1 4.9 0 1.7-4.8 13.2-7 14.5C22.7 29.9 19.2 30.2 15.7 30.2zM11.7 4.1c-0.1 0-0.3 0.1-0.6 0.2C9.8 5 7.7 7.6 6.1 10c2.7-2 5.8-4.4 5.9-5.5 0-0.1 0-0.2-0.1-0.3C11.9 4.2 11.8 4.1 11.7 4.1zM16.9 1.7c-0.1 0-0.2 0-0.2 0 0 0-0.1 0.1-0.1 0.1 0 1 3.9 4.2 7.3 6.8C21.3 5.2 18.3 1.9 16.9 1.7 17 1.7 16.9 1.7 16.9 1.7z" style = "fill: #fff"></path></svg>