<svg xmlns="http://www.w3.org/2000/svg" viewBox="0 0 16 27" class="mkdf-category" width="26" height="27">
<path d="M1.4 2.5C2.1 2.9 2.1 4 2.1 13.6c0.4 9.6 0 10.7-0.4 11.1 -0.8 0.4-0.4 0.4 0 0.8 1.1 0.8 1.9 0.4 1.9-0.8 0-0.4 0.8-1.9 1.9-3.5C7 19 7.4 19 8.2 19.4c1.1 0.4 4.9 3.8 4.9 4.6 0 0.4 1.5 0 1.9-0.8 0 0 0-0.4-0.4-0.8 0 0 0-1.2 0-1.9s-0.4-2.7-0.4-3.8c-0.8-3.5-1.1-6.9-1.1-11.5 -0.4-3.8-0.4-3.8-1.1-3.8 -2.6 0.4-8.3 0.4-8.3 0C3.3 0.6 1 0.9 1 1.7 1 2.1 1 2.5 1.4 2.5zM3.6 12.8v-10h3.8l3.8-0.4L12 6.7c0.8 4.2 1.9 15 1.5 15 0 0.4-1.9-1.2-4.2-3.5 -1.1-0.8-2.3-0.8-2.3 0 0 0-1.1 1.2-1.9 2.3l-1.9 2.3L3.6 12.8z"></path>
</svg>